<?xml version="1.0" standalone="no"?>
<!DOCTYPE svg PUBLIC "-//W3C//DTD SVG 20010904//EN"
 "http://www.w3.org/TR/2001/REC-SVG-20010904/DTD/svg10.dtd">
<svg version="1.0" xmlns="http://www.w3.org/2000/svg"
 width="1024.000000pt" height="1024.000000pt" viewBox="0 0 1024.000000 1024.000000"
 preserveAspectRatio="xMidYMid meet">

<g transform="translate(0.000000,1024.000000) scale(0.100000,-0.100000)"
fill="#000000" stroke="none">
<path d="M4730 8416 c-798 -103 -1479 -435 -2010 -982 -602 -621 -920 -1414
-920 -2294 1 -764 279 -1506 791 -2105 174 -205 453 -453 674 -602 449 -302
1031 -505 1580 -552 599 -52 1226 69 1766 340 333 166 583 350 874 643 248
249 412 465 571 754 449 817 509 1861 156 2748 -247 622 -717 1185 -1291 1548
-399 252 -870 420 -1381 492 -158 22 -665 28 -810 10z m486 -1067 c81 -14 151
-50 369 -191 157 -101 520 -332 1165 -742 102 -65 208 -133 237 -152 52 -34
98 -90 124 -154 12 -29 14 -131 14 -586 l0 -550 -38 -76 c-46 -94 -91 -135
-258 -241 -142 -90 -164 -105 -158 -111 2 -2 78 -50 169 -106 91 -57 184 -116
208 -132 112 -77 115 -247 6 -349 -22 -21 -268 -184 -549 -365 -280 -180 -611
-393 -735 -472 -422 -271 -443 -282 -607 -290 -182 -8 -257 17 -488 165 -714
457 -911 583 -1045 668 -368 233 -403 262 -460 379 -42 87 -50 177 -50 576 0
377 5 418 58 490 36 50 43 55 297 217 127 80 231 147 232 148 2 1 -105 70
-237 154 -152 97 -252 167 -274 193 -85 99 -91 267 -13 370 36 47 51 57 817
545 256 163 551 351 655 418 105 67 214 134 243 149 104 53 197 66 318 45z"/>
<path d="M5045 7031 c-22 -10 -137 -81 -255 -158 -118 -77 -451 -289 -740
-473 -289 -183 -533 -340 -542 -348 -28 -24 -22 -66 12 -96 17 -14 108 -74
203 -132 95 -59 237 -149 317 -199 80 -50 244 -154 365 -230 255 -160 401
-253 538 -342 118 -77 190 -99 263 -83 58 13 106 40 297 162 126 81 737 471
1092 698 72 45 139 91 150 101 25 25 25 83 0 108 -11 11 -144 98 -295 194
-453 287 -1018 649 -1133 725 -144 95 -194 109 -272 73z"/>
<path d="M6760 5561 c-25 -16 -261 -168 -525 -337 -264 -169 -554 -355 -645
-413 -230 -147 -254 -156 -410 -156 -161 0 -174 5 -490 206 -135 86 -346 220
-469 298 l-223 142 -225 -143 c-266 -169 -293 -191 -293 -241 0 -50 17 -82 59
-110 20 -14 282 -180 583 -371 300 -190 586 -371 634 -402 136 -88 198 -114
269 -114 95 0 38 -32 920 530 253 161 534 340 625 398 174 110 226 155 235
206 3 17 5 144 3 283 l-3 252 -45 -28z"/>
<path d="M3432 4359 c5 -210 -15 -186 324 -404 748 -481 1175 -751 1234 -779
55 -26 77 -31 140 -31 107 0 47 -35 1005 585 198 128 410 264 470 303 61 39
115 75 122 81 9 8 -34 40 -169 126 -100 63 -184 114 -188 113 -4 -1 -107 -67
-231 -146 -123 -79 -345 -222 -494 -318 -340 -218 -431 -266 -542 -281 -119
-17 -223 -1 -328 51 -44 22 -165 95 -270 162 -234 151 -998 635 -1043 662
l-34 20 4 -144z"/>
</g>
</svg>
