<?xml version="1.0" standalone="no"?>
<!DOCTYPE svg PUBLIC "-//W3C//DTD SVG 20010904//EN"
 "http://www.w3.org/TR/2001/REC-SVG-20010904/DTD/svg10.dtd">
<svg version="1.0" xmlns="http://www.w3.org/2000/svg"
 width="1024.000000pt" height="1024.000000pt" viewBox="0 0 1024.000000 1024.000000"
 preserveAspectRatio="xMidYMid meet">

<g transform="translate(0.000000,1024.000000) scale(0.100000,-0.100000)"
fill="#000000" stroke="none">
<path d="M2150 6674 c-178 -15 -383 -70 -537 -144 -279 -136 -541 -400 -672
-681 -145 -310 -179 -652 -95 -982 67 -264 187 -472 393 -677 205 -204 437
-332 714 -392 149 -32 446 -32 596 0 372 81 681 285 888 588 409 599 327 1382
-199 1890 -253 245 -577 381 -943 397 -55 2 -120 3 -145 1z m400 -647 c433
-263 564 -346 588 -373 21 -24 22 -31 22 -242 0 -175 -3 -222 -15 -238 -8 -12
-66 -54 -130 -94 l-116 -72 111 -69 c60 -39 117 -80 125 -92 20 -29 19 -80 -2
-105 -22 -25 -742 -476 -842 -527 -60 -30 -46 -38 -621 331 -157 100 -294 192
-304 203 -16 18 -18 39 -17 213 2 146 5 198 16 214 8 12 75 59 149 105 101 63
132 87 123 95 -7 6 -59 39 -117 74 -58 34 -117 74 -132 88 -56 52 -44 123 30
171 144 95 754 467 782 477 19 7 46 10 60 7 14 -3 144 -78 290 -166z"/>
<path d="M1847 5851 l-388 -239 153 -95 c452 -279 624 -379 642 -375 18 4 775
461 775 468 0 3 -57 39 -127 81 -70 42 -243 147 -385 233 -142 87 -264 159
-270 161 -7 3 -187 -103 -400 -234z"/>
<path d="M2805 5347 c-138 -84 -305 -188 -372 -230 -132 -83 -156 -92 -207
-83 -18 4 -129 65 -247 137 -117 72 -216 131 -219 132 -8 3 -269 -156 -270
-164 0 -10 688 -429 704 -429 15 0 158 86 579 346 l289 179 1 133 c1 72 0 132
-3 132 -3 0 -118 -69 -255 -153z"/>
<path d="M1440 4928 l0 -113 133 -84 c316 -202 651 -413 662 -417 13 -6 112
53 485 286 320 199 313 195 298 207 -33 26 -208 133 -218 133 -6 0 -117 -66
-248 -147 -306 -190 -317 -196 -366 -190 -39 5 -160 75 -550 319 -104 65 -191
118 -192 118 -2 0 -4 -51 -4 -112z"/>
<path d="M3976 5771 c-4 -5 -5 -214 -4 -465 l2 -456 83 0 83 0 2 321 3 321
189 -321 190 -321 88 0 88 0 0 465 0 465 -80 0 -80 0 -2 -322 -3 -322 -106
180 c-58 98 -144 243 -189 322 l-83 142 -88 0 c-48 0 -90 -4 -93 -9z"/>
<path d="M6610 5315 l0 -465 275 0 275 0 0 75 0 75 -195 0 -195 0 0 390 0 390
-80 0 -80 0 0 -465z"/>
<path d="M6170 5594 l0 -86 -47 3 -48 3 -3 -72 -3 -72 53 0 53 0 0 -208 c0
-198 1 -209 23 -244 33 -54 91 -78 185 -78 114 0 124 6 129 79 l3 60 -60 -6
c-51 -4 -64 -2 -87 16 l-27 22 -3 179 -3 180 93 0 92 0 0 70 0 69 -92 3 -93 3
0 83 0 82 -82 0 -83 0 0 -86z"/>
<path d="M5030 5521 c-79 -24 -145 -87 -187 -176 -26 -55 -28 -70 -28 -176 0
-109 2 -119 30 -174 56 -111 159 -161 310 -153 68 4 91 9 136 35 59 33 100 78
124 136 l15 37 -88 0 c-85 0 -89 -1 -100 -26 -14 -29 -66 -54 -114 -54 -55 0
-118 38 -139 84 -10 23 -19 53 -19 69 l0 27 231 0 232 0 -6 81 c-12 186 -132
301 -311 298 -34 0 -72 -4 -86 -8z m155 -135 c36 -15 60 -45 70 -88 l7 -28
-141 0 c-92 0 -141 4 -141 10 0 32 55 100 90 113 28 10 81 7 115 -7z"/>
<path d="M7430 5520 c-86 -18 -156 -90 -175 -177 l-7 -33 81 0 c61 0 81 3 81
13 0 28 49 60 98 65 82 7 132 -30 132 -100 l0 -33 -118 0 c-105 0 -123 -3
-173 -26 -135 -64 -169 -218 -71 -323 42 -45 98 -66 175 -66 79 0 131 22 170
71 l24 31 12 -46 11 -46 73 0 73 0 -7 53 c-4 28 -8 142 -8 252 -1 171 -4 206
-20 240 -22 50 -79 101 -128 115 -54 16 -170 21 -223 10z m186 -395 c31 -20
31 -51 0 -96 -33 -48 -86 -73 -143 -66 -116 13 -128 142 -17 177 40 13 131 5
160 -15z"/>
<path d="M8731 5520 c-92 -20 -163 -80 -210 -180 -22 -49 -25 -68 -25 -170 -1
-99 3 -122 23 -167 31 -69 95 -127 162 -147 59 -18 176 -21 229 -6 82 23 164
97 185 168 6 22 5 22 -79 22 -73 0 -87 -3 -99 -20 -34 -49 -123 -65 -186 -32
-47 23 -72 61 -78 116 l-6 46 233 0 233 0 -6 75 c-6 82 -35 158 -81 212 -56
67 -190 104 -295 83z m146 -146 c25 -16 48 -48 58 -81 l6 -23 -141 0 -141 0 7
23 c15 49 54 88 99 100 29 8 86 -2 112 -19z"/>
<path d="M9480 5517 c-19 -6 -54 -30 -77 -53 l-42 -42 -3 45 -3 45 -70 0 -70
0 -3 -331 -2 -331 80 0 80 0 0 208 c0 183 2 211 19 242 27 51 74 75 143 74
l58 -1 0 79 0 78 -37 -1 c-21 -1 -54 -6 -73 -12z"/>
<path d="M5440 5510 c1 -3 45 -75 99 -160 l98 -154 -103 -171 -102 -170 86 -3
c47 -2 91 -1 98 2 6 2 37 53 69 112 l58 107 33 -54 c18 -30 49 -80 68 -111
l36 -58 95 0 95 0 -82 128 c-44 70 -94 148 -110 173 l-28 47 90 153 c49 84 90
156 90 159 0 3 -39 4 -87 3 -101 -2 -98 1 -159 -125 -21 -43 -40 -78 -44 -78
-3 1 -30 46 -60 101 l-55 101 -93 1 c-50 1 -92 0 -92 -3z"/>
<path d="M7823 5500 c3 -8 59 -152 126 -319 130 -323 132 -332 89 -386 -27
-34 -69 -55 -113 -55 l-35 0 0 -71 0 -72 68 5 c115 8 194 61 245 163 25 51
297 731 297 743 0 4 -38 7 -85 7 l-85 0 -28 -75 c-16 -41 -53 -141 -83 -222
-29 -81 -56 -144 -60 -140 -3 4 -21 48 -39 97 -18 50 -55 146 -81 215 l-49
125 -85 0 c-72 0 -85 -3 -82 -15z"/>
</g>
</svg>
