<?xml version="1.0" standalone="no"?>
<svg version="1.0" xmlns="http://www.w3.org/2000/svg"
 width="512" height="512" viewBox="50 322 360 360"
 preserveAspectRatio="xMidYMid meet">
<rect x="50" y="322" width="360" height="360" fill="#ffffff"/>
<g transform="translate(0.000000,1024.000000) scale(0.100000,-0.100000)"
fill="#000000" stroke="none">
<path d="M2150 6674 c-178 -15 -383 -70 -537 -144 -279 -136 -541 -400 -672
-681 -145 -310 -179 -652 -95 -982 67 -264 187 -472 393 -677 205 -204 437
-332 714 -392 149 -32 446 -32 596 0 372 81 681 285 888 588 409 599 327 1382
-199 1890 -253 245 -577 381 -943 397 -55 2 -120 3 -145 1z m400 -647 c433
-263 564 -346 588 -373 21 -24 22 -31 22 -242 0 -175 -3 -222 -15 -238 -8 -12
-66 -54 -130 -94 l-116 -72 111 -69 c60 -39 117 -80 125 -92 20 -29 19 -80 -2
-105 -22 -25 -742 -476 -842 -527 -60 -30 -46 -38 -621 331 -157 100 -294 192
-304 203 -16 18 -18 39 -17 213 2 146 5 198 16 214 8 12 75 59 149 105 101 63
132 87 123 95 -7 6 -59 39 -117 74 -58 34 -117 74 -132 88 -56 52 -44 123 30
171 144 95 754 467 782 477 19 7 46 10 60 7 14 -3 144 -78 290 -166z"/>
<path d="M1847 5851 l-388 -239 153 -95 c452 -279 624 -379 642 -375 18 4 775
461 775 468 0 3 -57 39 -127 81 -70 42 -243 147 -385 233 -142 87 -264 159
-270 161 -7 3 -187 -103 -400 -234z"/>
<path d="M2805 5347 c-138 -84 -305 -188 -372 -230 -132 -83 -156 -92 -207
-83 -18 4 -129 65 -247 137 -117 72 -216 131 -219 132 -8 3 -269 -156 -270
-164 0 -10 688 -429 704 -429 15 0 158 86 579 346 l289 179 1 133 c1 72 0 132
-3 132 -3 0 -118 -69 -255 -153z"/>
<path d="M1440 4928 l0 -113 133 -84 c316 -202 651 -413 662 -417 13 -6 112
53 485 286 320 199 313 195 298 207 -33 26 -208 133 -218 133 -6 0 -117 -66
-248 -147 -306 -190 -317 -196 -366 -190 -39 5 -160 75 -550 319 -104 65 -191
118 -192 118 -2 0 -4 -51 -4 -112z"/>
</g>
</svg>
